#!OML:ASF F:\VICON\USERDATA\INSTALL\rory3\rory3.ASF
:FULLY-SPECIFIED
:DEGREES
490
root 0.185835 15.2111 -31.7514 -150.941 -9.22238 -184.212
lowerback -18.035 0.658774 -1.26996
upperback -16.0516 -2.7535 -1.19638
thorax -7.44973 -2.95242 -0.671725
lowerneck -1.61195 3.79504 -2.23771
upperneck 38.3305 -1.85967 4.36869
head 13.1903 -2.91009 1.40023
rclavicle -7.30534e-015 -2.98177e-015
rhumerus -44.6885 -52.2662 32.7461
rradius 14.1932
rwrist 48.7939
rhand 4.82833 1.00572
rfingers 7.12502
rthumb 30.2062 -26.544
lclavicle -7.30534e-015 -2.98177e-015
lhumerus 39.561 -24.7959 26.4264
lradius 31.089
lwrist -15.4803
lhand 5.07511 21.0504
lfingers 7.12502
lthumb 30.4416 48.5568
rfemur -190.323 -189.042 -148.861
rtibia 29.377
rfoot -37.0232 -30.5627
rtoes -2.03867
lfemur -67.4327 8.45907 -47.0112
ltibia 53.0761
lfoot -27.0007 22.6267
ltoes 20.9662
491
root 0.194085 15.221 -31.8842 -150.338 -9.04 -183.968
lowerback -19.6043 0.66175 -1.39743
upperback -15.839 -2.74239 -1.06405
thorax -6.38666 -2.95832 -0.546836
lowerneck -2.63796 3.73905 -2.50185
upperneck 38.5621 -1.86935 4.58383
head 13.5161 -2.87708 1.53666
rclavicle 6.36111e-015 3.77691e-015
rhumerus -35.9642 -38.7348 20.7836
rradius 15.0127
rwrist 32.9289
rhand 5.55708 0.276396
rfingers 7.12502
rthumb 30.9012 -27.1439
lclavicle 6.36111e-015 3.77691e-015
lhumerus 40.84 -23.3061 26.2625
lradius 31.3098
lwrist -15.2786
lhand 5.19387 21.8345
lfingers 7.12502
lthumb 30.5549 49.3198
rfemur -190.383 -189.583 -148.696
rtibia 28.9845
rfoot -36.2702 -30.7317
rtoes -0.580707
lfemur -68.0235 8.90345 -47.0371
ltibia 53.4809
lfoot -27.2022 22.2989
ltoes 20.1974
492
root 0.173933 15.2148 -31.9498 -150.181 -9.52802 -183.487
lowerback -20.5145 0.542564 -0.551054
upperback -14.9639 -2.7139 -0.847389
thorax -4.91553 -2.89134 -0.890015
lowerneck -5.30545 3.40036 -3.1542
upperneck 38.7956 -1.90978 4.85222
head 14.2145 -2.7716 1.7851
rclavicle -8.74653e-015 -8.54774e-015
rhumerus -36.7055 -41.4804 22.0239
rradius 14.9246
rwrist 32.0413
rhand 3.95088 -1.99594
rfingers 7.12502
rthumb 29.3688 -29.6957
lclavicle -8.74653e-015 -8.54774e-015
lhumerus 42.7813 -17.7093 30.7836
lradius 29.2601
lwrist -20.0861
lhand 6.06225 20.688
lfingers 7.12502
lthumb 31.3826 48.0158
rfemur -190.127 -188.896 -148.1
rtibia 28.4476
rfoot -35.9428 -30.1685
rtoes -2.20601
lfemur -68.2021 8.81109 -46.4837
ltibia 53.9215
lfoot -27.6564 21.9547
ltoes 19.6211
493
root 0.152343 15.1831 -31.9948 -149.979 -10.1141 -182.743
lowerback -20.6082 0.800253 0.612267
upperback -15.7615 -2.86382 -0.794385
thorax -5.82694 -3.19762 -1.45654
lowerneck -3.29602 3.89317 -2.22856
upperneck 38.6621 -1.5686 4.58645
head 13.6901 -2.6636 1.52915
rclavicle 1.3418e-015 -4.57205e-015
rhumerus -40.7355 -47.3943 29.3431
rradius 14.5886
rwrist 42.8021
rhand 6.86794 2.7489
rfingers 7.12502
rthumb 32.15 -24.4269
lclavicle 1.3418e-015 -4.57205e-015
lhumerus 42.845 -15.4798 34.5627
lradius 28.1232
lwrist -23.8005
lhand 6.45369 19.7759
lfingers 7.12502
lthumb 31.7555 47.0306
rfemur -190.026 -188.098 -147.193
rtibia 27.9261
rfoot -34.9873 -29.7174
rtoes -2.02778
lfemur -68.6633 8.58829 -45.6088
ltibia 54.5474
lfoot -28.3223 21.3107
ltoes 21.1515
494
root 0.145071 15.1919 -32.0552 -149.68 -9.99894 -182.877
lowerback -21.5481 0.767905 0.515236
upperback -15.2684 -2.78139 -0.797372
thorax -4.78339 -3.09601 -1.47602
lowerneck -4.30036 3.77199 -2.3123
upperneck 38.5363 -1.44688 4.52444
head 13.8426 -2.52737 1.55088
rclavicle 5.1684e-015 3.97569e-016
rhumerus -38.2027 -43.3266 25.919
rradius 14.9625
rwrist 36.8832
rhand 6.81062 1.58049
rfingers 7.12502
rthumb 32.0954 -25.6063
lclavicle 5.1684e-015 3.97569e-016
lhumerus 44.6996 -13.7481 34.9856
lradius 28.0873
lwrist -23.8747
lhand 6.32142 19.4972
lfingers 7.12502
lthumb 31.6295 46.7767
rfemur -189.988 -187.889 -147.404
rtibia 27.6232
rfoot -33.7536 -29.9196
rtoes -0.654327
lfemur -68.9403 8.66109 -45.8513
ltibia 54.9079
lfoot -28.3312 21.6421
ltoes 19.4154
495
root 0.112275 15.1922 -32.0601 -149.969 -10.5788 -182.382
lowerback -19.574 0.964956 1.83214
upperback -16.069 -2.83629 -0.805475
thorax -6.74861 -3.31288 -2.07128
lowerneck -4.56096 3.96543 -2.24419
upperneck 39.2223 -1.40676 4.60522
head 14.2269 -2.56277 1.56451
rclavicle -2.60905e-014 -1.98785e-015
rhumerus -42.3763 -49.5539 32.9726
rradius 14.6912
rwrist 45.5946
rhand 7.67828 3.33484
rfingers 7.12502
rthumb 32.9211 -23.682
lclavicle -2.60905e-014 -1.98785e-015
lhumerus 45.1723 -13.4255 35.5793
lradius 28.5044
lwrist -24.1684
lhand 6.44761 19.6662
lfingers 7.12502
lthumb 31.7497 46.9221
rfemur -189.697 -186.656 -146.782
rtibia 27.5078
rfoot -33.1235 -29.5411
rtoes -3.17486
lfemur -68.7962 8.35966 -45.0524
ltibia 55.3083
lfoot -28.4961 21.8963
ltoes 19.4555
496
root 0.10657 15.1871 -32.0846 -150.355 -10.7575 -182.228
lowerback -18.8004 1.05671 2.23531
upperback -16.1126 -2.7004 -0.872315
thorax -7.20572 -3.2666 -2.31025
lowerneck -4.67617 3.93829 -1.89401
upperneck 39.3732 -1.38253 4.2188
head 14.326 -2.54887 1.34485
rclavicle 8.00108e-015 -1.11319e-014
rhumerus -43.6165 -51.1703 34.965
rradius 14.7589
rwrist 46.0303
rhand 6.26273 0.740592
rfingers 7.12502
rthumb 31.5736 -26.5499
lclavicle 8.00108e-015 -1.11319e-014
lhumerus 46.2956 -13.1819 35.4447
lradius 28.7798
lwrist -23.6025
lhand 5.76776 19.9173
lfingers 7.12502
lthumb 31.102 47.2993
rfemur -189.333 -186.438 -146.483
rtibia 27.7404
rfoot -33.1622 -29.4076
rtoes -2.38629
lfemur -68.3433 8.40969 -44.688
ltibia 55.3464
lfoot -28.7671 21.8111
ltoes 19.4287
497
root 0.109164 15.1872 -32.1217 -150.372 -10.4624 -182.234
lowerback -18.9531 1.04728 2.03594
upperback -16.3434 -2.81019 -0.860733
thorax -7.39937 -3.35734 -2.18749
lowerneck -3.0279 4.14971 -1.28798
upperneck 38.7985 -1.10952 3.801
head 13.6791 -2.45166 1.09058
rclavicle -4.77083e-015 1.19271e-015
rhumerus -64.9914 -63.8394 60.7724
rradius 14.6823
rwrist 65.3858
rhand 7.13152 5.58466
rfingers 7.12502
rthumb 32.4009 -21.5401
lclavicle -4.77083e-015 1.19271e-015
lhumerus 46.6051 -12.9527 35.2994
lradius 29.2536
lwrist -23.0059
lhand 5.2508 20.3197
lfingers 7.12502
lthumb 30.6092 47.795
rfemur -189.191 -186.906 -146.561
rtibia 27.7026
rfoot -33.0057 -29.4507
rtoes -1.0541
lfemur -68.3858 8.69098 -44.7786
ltibia 55.6074
lfoot -28.8038 22.0387
ltoes 19.2929
498
root 0.145803 15.2064 -32.1476 -150.032 -9.02659 -183.537
lowerback -18.1476 0.911802 -0.0343004
upperback -16.3187 -2.68514 -1.10054
thorax -7.7283 -3.088 -1.23558
lowerneck -5.02097 4.04382 -1.56167
upperneck 39.2853 -1.02473 3.85174
head 14.3448 -2.35183 1.18594
rclavicle -1.04859e-014 -8.34896e-015
rhumerus -37.2591 -43.5793 27.0605
rradius 15.2633
rwrist 35.3745
rhand 5.02564 -1.36809
rfingers 7.12502
rthumb 30.3944 -28.8832
lclavicle -1.04859e-014 -8.34896e-015
lhumerus 48.0392 -11.5906 36.1218
lradius 28.9551
lwrist -23.1607
lhand 4.5133 20.4473
lfingers 7.12502
lthumb 29.9056 48.0516
rfemur -189.432 -188.909 -148.222
rtibia 27.9432
rfoot -33.6813 -29.9918
rtoes 1.81915
lfemur -68.3391 9.2661 -46.479
ltibia 55.3714
lfoot -29.1598 21.7263
ltoes 18.8302
499
root 0.097014 15.1672 -32.2128 -149.501 -10.9174 -181.882
lowerback -19.5027 1.18123 2.70189
upperback -17.0593 -3.07766 -0.860427
thorax -8.02256 -3.7257 -2.55683
lowerneck -2.31628 4.46061 -0.900903
upperneck 38.7127 -0.808791 3.84353
head 13.479 -2.31269 1.06383
rclavicle 2.41026e-014 -7.55382e-015
rhumerus -35.4365 -40.7659 25.4446
rradius 15.3574
rwrist 34.3889
rhand 5.82009 0.201011
rfingers 7.12502
rthumb 31.1519 -27.1714
lclavicle 2.41026e-014 -7.55382e-015
lhumerus 48.0754 -12.6769 34.9331
lradius 29.5717
lwrist -21.7425
lhand 4.24272 21.0315
lfingers 7.12502
lthumb 29.6474 48.682
rfemur -190.023 -186.466 -146.13
rtibia 27.8855
rfoot -32.7529 -28.9798
rtoes -0.759563
lfemur -69.2409 8.42626 -44.4653
ltibia 55.9233
lfoot -28.9808 21.4835
ltoes 19.883
500
root 0.129213 15.1724 -32.2705 -149.28 -9.83555 -182.892
lowerback -19.5447 0.895875 0.882269
upperback -16.9122 -3.18623 -0.955762
thorax -7.76143 -3.58398 -1.671
lowerneck -3.47742 4.42241 -1.50672
upperneck 38.9721 -0.907415 4.49187
head 13.849 -2.31878 1.43208
rclavicle -1.77912e-014 -1.5704e-014
rhumerus -51.8318 -59.8603 46.8603
rradius 14.817
rwrist 56.6057
rhand 6.0024 3.09099
rfingers 7.12502
rthumb 31.3256 -24.2479
lclavicle -1.77912e-014 -1.5704e-014
lhumerus 49.0095 -11.1565 35.705
lradius 30.3418
lwrist -22.941
lhand 4.79094 21.0242
lfingers 7.12502
lthumb 30.1705 48.5804
rfemur -189.822 -187.908 -147.356
rtibia 27.7744
rfoot -32.9437 -29.889
rtoes -0.97466
lfemur -69.1816 9.09803 -45.8945
ltibia 56.0041
lfoot -29.5781 21.0335
ltoes 19.1064
501
root 0.122109 15.1679 -32.2896 -149.459 -10.236 -182.476
lowerback -19.4843 0.747506 1.58079
upperback -16.5222 -3.29777 -0.824143
thorax -7.35035 -3.6212 -1.96355
lowerneck -4.6697 4.32451 -1.61029
upperneck 38.9067 -0.878446 4.71898
head 14.0783 -2.19629 1.56686
rclavicle 2.92213e-014 2.18663e-014
rhumerus -33.8615 -38.7353 23.253
rradius 15.8173
rwrist 30.4444
rhand 5.79184 -0.358645
rfingers 7.12502
rthumb 31.125 -27.7362
lclavicle 2.92213e-014 2.18663e-014
lhumerus 50.6147 -9.7133 35.8455
lradius 29.6725
lwrist -23.4709
lhand 4.0405 20.4373
lfingers 7.12502
lthumb 29.4544 48.122
rfemur -189.537 -187.604 -146.749
rtibia 27.5706
rfoot -32.7708 -29.8294
rtoes -0.482805
lfemur -69.2204 9.12552 -45.3254
ltibia 56.2908
lfoot -29.5661 20.8627
ltoes 19.8486
502
root 0.065465 15.1416 -32.3119 -149.342 -11.5204 -181.531
lowerback -20.2024 0.836318 3.65714
upperback -16.3132 -3.44986 -0.724768
thorax -6.85072 -3.86867 -3.09684
lowerneck -4.87625 4.33957 -1.16392
upperneck 38.5021 -0.677712 4.55942
head 13.928 -1.9966 1.45739
rclavicle 3.32964e-015 -2.92213e-014
rhumerus -39.6024 -50.0734 32.0094
rradius 15.071
rwrist 42.7601
rhand 6.11173 1.67764
rfingers 7.12502
rthumb 31.4298 -25.641
lclavicle 3.32964e-015 -2.92213e-014
lhumerus 51.6827 -8.651 36.08
lradius 30.2384
lwrist -23.832
lhand 4.92626 20.6136
lfingers 7.12502
lthumb 30.2996 48.1462
rfemur -189.793 -185.049 -145.645
rtibia 27.71
rfoot -32.165 -28.3507
rtoes -1.8456
lfemur -69.338 8.43434 -44.1309
ltibia 56.4148
lfoot -29.7294 20.7893
ltoes 19.9977
503
root 0.169113 15.1562 -32.3861 -148.929 -8.54221 -183.919
lowerback -19.0377 0.658408 -1.06872
upperback -17.3795 -3.47877 -1.15635
thorax -8.54964 -3.63248 -0.758884
lowerneck -3.82266 4.58393 -0.559213
upperneck 38.7183 -0.505856 4.12152
head 13.801 -1.99954 1.16826
rclavicle 6.4605e-016 1.2921e-014
rhumerus -35.9911 -45.6419 28.2688
rradius 15.3621
rwrist 38.6226
rhand 5.79632 0.914936
rfingers 7.12502
rthumb 31.1292 -26.4618
lclavicle 6.4605e-016 1.2921e-014
lhumerus 51.5112 -9.81801 35.4042
lradius 31.1198
lwrist -22.8873
lhand 5.51569 21.214
lfingers 7.12502
lthumb 30.8617 48.6417
rfemur -189.661 -189.911 -148.604
rtibia 27.9996
rfoot -34.3757 -30.1566
rtoes 2.24519
lfemur -69.1332 10.0284 -47.4609
ltibia 55.903
lfoot -29.8432 20.2909
ltoes 20.384
